# xmcd
#
# Track frame offsets: 
#        150
#        23944
#        52362
#        85356
#        110848
#        139218
#        160043
#        187248
#        209398
#        237955
#        281358
#        314412
#
# Disc length: 4507 seconds
#
# Revision: 1
# Processed by: cddbd v1.5.1PL0 Copyright (c) Steve Scherf et al.
# Submitted via: ExactAudioCopy v0.95a5
#
DISCID=b811990c
DTITLE=The Chick Corea New Trio - Past, Present and Futures
DYEAR=2001
DGENRE=Jazz
TTITLE0=Fingerprints
TTITLE1=Jitterbug Waltz
TTITLE2=Cloud Candy
TTITLE3=Diginity
TTITLE4=Rhunba Flamenco
TTITLE5=Anna's Tango
TTITLE6=The Chelsea Shuffle
TTITLE7=Nostalgia
TTITLE8=The Revolving Door
TTITLE9=Past, Present and Futures
TTITLE10=Life Line
TTITLE11=500 Miles High
EXTD=YEAR: 2001
EXTT0=
EXTT1=
EXTT2=
EXTT3=
EXTT4=
EXTT5=
EXTT6=
EXTT7=
EXTT8=
EXTT9=
EXTT10=
EXTT11=
PLAYORDER=
